<?xml version="1.0" encoding="UTF-8"?>
<!DOCTYPE svg PUBLIC "-//W3C//DTD SVG 1.1//EN" "http://www.w3.org/Graphics/SVG/1.1/DTD/svg11.dtd">
<svg version="1.1" xmlns="http://www.w3.org/2000/svg" xmlns:xlink="http://www.w3.org/1999/xlink" x="0px" y="0px" width="64" height="64" viewBox="0, 0, 64, 64">
  <g id="Layer 1 Copy Copy">
    <path d="M32.457,1.92 C33.405,2.016 34.391,1.929 35.302,2.207 C41.662,4.15 44.348,6.836 46.291,13.195 C46.561,14.08 46.711,16.448 46.419,17.596 C44.483,25.194 37.673,34.008 32.457,40.075 C29.003,35.936 25.606,31.692 22.804,27.073 C21.23,24.479 18.233,19.567 18.336,16.041 C18.472,11.378 20.599,6.988 24.562,4.332 C26.079,3.316 27.928,2.916 29.611,2.207 z M32.457,6.619 C27.286,6.619 23.094,10.811 23.094,15.982 C23.157,16.611 23.1,17.264 23.284,17.869 C24.543,21.991 26.447,23.895 30.57,25.154 C31.4,25.408 33.513,25.408 34.344,25.154 C38.466,23.895 40.37,21.991 41.629,17.869 C41.814,17.264 41.756,16.611 41.819,15.982 C41.819,10.811 37.628,6.619 32.457,6.619 z" fill="#000000"/>
    <text transform="matrix(1, 0, 0, 1, 32.456, 53)">
      <tspan x="-14" y="5" font-family="Helvetica-Bold" font-size="14" fill="#000000">Map</tspan>
    </text>
  </g>
  <defs/>
</svg>
