<?xml version="1.0" encoding="UTF-8"?>
<!DOCTYPE svg PUBLIC "-//W3C//DTD SVG 1.1//EN" "http://www.w3.org/Graphics/SVG/1.1/DTD/svg11.dtd">
<svg version="1.1" xmlns="http://www.w3.org/2000/svg" xmlns:xlink="http://www.w3.org/1999/xlink" x="0px" y="0px" width="64" height="64" viewBox="0, 0, 64, 64">
  <g id="Layer 1 Copy Copy">
    <text transform="matrix(1, 0, 0, 1, 32.276, 53)">
      <tspan x="-18.276" y="5" font-family="Helvetica-Bold" font-size="14" fill="#000000">Menu</tspan>
    </text>
    <path d="M32.276,1.814 C34.342,1.918 35.036,1.865 37.359,2.582 C42.664,4.219 46.964,8.519 48.6,13.824 C49.317,16.147 49.265,16.84 49.369,18.907 C49.369,28.347 41.716,36 32.276,36 C22.836,36 15.183,28.347 15.183,18.907 C15.294,12.673 18.591,6.875 24.128,3.877 C26.789,2.436 27.589,2.501 30.528,1.902 z M32.186,4.093 C24.005,4.093 17.373,10.725 17.373,18.907 C17.373,27.088 24.005,33.721 32.186,33.721 C40.368,33.721 47,27.088 47,18.907 C47,10.725 40.368,4.093 32.186,4.093 z" fill="#000000"/>
    <path d="M32.276,9.72 C33.386,9.777 33.759,9.748 35.008,10.133 C37.858,11.013 40.169,13.324 41.049,16.175 C41.434,17.423 41.406,17.796 41.462,18.907 C41.462,23.98 37.349,28.093 32.276,28.093 C27.202,28.093 23.09,23.98 23.09,18.907 C23.149,15.556 24.921,12.44 27.897,10.829 C29.327,10.055 29.757,10.09 31.337,9.768 z M32.228,10.946 C27.831,10.946 24.266,14.51 24.266,18.907 C24.266,23.304 27.831,26.868 32.228,26.868 C36.625,26.868 40.189,23.304 40.189,18.907 C40.189,14.51 36.625,10.946 32.228,10.946 z" fill="#000000"/>
    <path d="M10.47,18.656 L10.47,18.656 C10.969,18.656 11.374,19.06 11.374,19.559 L11.374,33.095 C11.374,33.594 10.969,33.998 10.47,33.998 L10.47,33.998 C9.972,33.998 9.567,33.594 9.567,33.095 L9.567,19.559 C9.567,19.06 9.972,18.656 10.47,18.656 z" fill="#000000"/>
    <path d="M7.844,6.001 L8.196,6.066 L8.677,6.504 L8.748,6.824 L8.748,14.131 L9.566,14.131 L9.566,6.824 L9.637,6.504 L10.119,6.066 C10.588,5.98 10.353,5.98 10.822,6.066 L11.303,6.504 L11.375,6.824 L11.375,14.131 L12.191,14.131 L12.191,6.824 L12.262,6.504 L12.743,6.066 C13.212,5.98 12.978,5.98 13.447,6.066 L13.928,6.504 L13.999,6.824 L13.999,14.131 L14,14.131 L14,14.646 C13.934,16.559 12.285,17.723 10.471,17.808 C8.792,17.755 7.546,16.905 7.014,15.283 C6.903,14.945 6.94,14.571 6.942,14.221 L6.94,14.212 L6.94,6.824 L7.011,6.504 L7.492,6.066 z" fill="#000000"/>
    <path d="M54.536,18.656 L54.536,18.656 C55.035,18.656 55.439,19.06 55.439,19.559 L55.439,33.095 C55.439,33.594 55.035,33.998 54.536,33.998 L54.536,33.998 C54.037,33.998 53.633,33.594 53.633,33.095 L53.633,19.559 C53.633,19.06 54.037,18.656 54.536,18.656 z" fill="#000000"/>
    <path d="M54.532,18.07 C52.581,18.07 51,16.49 51,13.384 C51,10.279 52.581,6.824 54.532,6.824 C56.483,6.824 58.064,10.279 58.064,13.384 C58.064,16.49 56.483,18.07 54.532,18.07 z" fill="#000000"/>
  </g>
  <defs/>
</svg>
