<?xml version="1.0" encoding="UTF-8"?>
<!DOCTYPE svg PUBLIC "-//W3C//DTD SVG 1.1//EN" "http://www.w3.org/Graphics/SVG/1.1/DTD/svg11.dtd">
<svg version="1.1" xmlns="http://www.w3.org/2000/svg" xmlns:xlink="http://www.w3.org/1999/xlink" x="0px" y="0px" width="64" height="64" viewBox="0, 0, 64, 64">
  <g id="Layer 1 Copy Copy">
    <text transform="matrix(1, 0, 0, 1, 31.917, 53)">
      <tspan x="-17.893" y="5" font-family="Helvetica-Bold" font-size="14" fill="#000000">Store</tspan>
    </text>
    <path d="M34.27,2.607 C36.593,1.267 46.707,4.694 48.81,5.775 C50.912,6.855 52.962,10.405 52.828,12.734 C52.694,15.064 50.038,25.835 48.27,26.856 L26.52,39.413 C25.543,39.977 22.919,39.759 21.993,38.156 L11.345,19.713 C10.419,18.11 11.543,15.728 12.52,15.164 z M43.503,7.676 C43.23,7.873 42.913,8.02 42.683,8.267 C41.114,9.948 40.742,11.335 41.26,13.575 C41.336,13.903 41.537,14.19 41.676,14.497 C43.055,16.885 46.109,17.704 48.497,16.325 C50.885,14.946 51.703,11.892 50.325,9.504 C49.439,8.104 48.046,7.132 46.348,7.018 C45.703,6.975 45.066,7.18 44.426,7.261 z" fill="#000000"/>
  </g>
  <defs/>
</svg>
