<?xml version="1.0" encoding="UTF-8"?>
<!DOCTYPE svg PUBLIC "-//W3C//DTD SVG 1.1//EN" "http://www.w3.org/Graphics/SVG/1.1/DTD/svg11.dtd">
<svg version="1.1" xmlns="http://www.w3.org/2000/svg" xmlns:xlink="http://www.w3.org/1999/xlink" x="0px" y="0px" width="64" height="64" viewBox="0, 0, 64, 64">
  <g id="Layer 1 Copy Copy">
    <path d="M32,8 L44,8 L44,9.998 L32,9.998 z" fill="#000000"/>
    <text transform="matrix(1, 0, 0, 1, 32, 53)">
      <tspan x="-17.893" y="5" font-family="Helvetica-Bold" font-size="14" fill="#000000">Story</tspan>
    </text>
    <path d="M8,4.549 C14.39,4.982 20.742,5.838 27.123,6.367 C30.329,6.527 28.747,6.466 31.869,6.553 L31.869,6.086 L44.177,5.036 L44.177,5.672 L44.761,5.621 L56,4.552 L55.989,39.053 L34.698,41.058 L34.698,42.924 L29.292,42.922 L29.292,41.061 L8,39.05 z M10.683,7.345 C10.683,7.345 10.683,36.5 10.683,36.5 C10.683,36.5 30.031,38.312 30.031,38.312 C30.031,38.312 34.163,38.283 34.163,38.283 C34.163,38.283 46.926,37.096 53.308,36.502 L53.317,7.347 C50.267,7.586 47.222,7.873 44.177,8.177 L44.177,25.419 L38.154,28 L31.869,26.469 L31.869,9.132 L30.64,9.18 C24.826,8.747 19.029,8.109 13.224,7.571 z z M43.152,6.125 L32.894,7 L32.894,25.158 L38.132,26.553 L43.152,24.283 z" fill="#000000"/>
  </g>
  <defs/>
</svg>
